<?xml version="1.0" encoding="utf-8"?>
<svg version="1.1" xmlns="http://www.w3.org/2000/svg" xmlns:xlink="http://www.w3.org/1999/xlink" x="0px" y="0px"
	 viewBox="0 0 800 120" enable-background="new 0 0 800 120" xml:space="preserve">
<g>
	<path fill="#3F9AFF" d="M67.83,10h16.76l3.72,74.01H71.81l-1.74-52.09L57.78,65.37h-2.48L43,32.49l-1.74,51.53H25L28.72,10h17.26
		l10.93,29.83L67.83,10z"/>
	<path fill="#3F9AFF" d="M165.17,57.01c0,8.36-3.04,15.24-9.13,20.62c-6.08,5.39-13.89,8.08-23.4,8.08
		c-9.44,0-17.13-2.66-23.09-7.97c-5.96-5.31-8.94-12.18-8.94-20.62c0-8.36,3.06-15.23,9.19-20.62c6.12-5.38,13.9-8.08,23.34-8.08
		c9.44,0,17.13,2.66,23.09,7.97C162.19,41.69,165.17,48.57,165.17,57.01z M119.23,57.01c0,4.97,1.16,8.74,3.48,11.3
		c2.32,2.56,5.71,3.84,10.18,3.84c4.47,0,7.86-1.28,10.18-3.84c2.32-2.56,3.48-6.29,3.48-11.19c0-4.9-1.16-8.64-3.48-11.24
		c-2.32-2.6-5.71-3.9-10.18-3.9c-4.47,0-7.86,1.28-10.18,3.84C120.39,48.38,119.23,52.11,119.23,57.01z"/>
	<path fill="#3F9AFF" d="M180.69,30.11h15.64l0.99,8.7c4.88-3.77,9.17-6.44,12.85-8.02c3.68-1.58,7.34-2.37,10.99-2.37
		c5.79,0,10.08,1.5,12.85,4.5c2.77,3,4.16,7.61,4.16,13.84v37.25h-18V49.73c0-2.06-0.48-3.54-1.43-4.46
		c-0.95-0.91-2.42-1.37-4.41-1.37c-1.74,0-3.85,0.64-6.33,1.92c-2.48,1.28-5.59,3.32-9.31,6.1v32.09h-18V30.11z"/>
	<path fill="#3F9AFF" d="M294.78,71.26l9.68,0.32l-0.62,12.43l-15.02-0.22c-11.84-0.14-20.55-2.4-26.13-6.77
		c-5.59-4.37-8.38-11.14-8.38-20.31c0-8.15,2.98-14.9,8.94-20.26c5.96-5.36,13.66-8.04,23.09-8.04c9.02,0,16.28,2.42,21.79,7.26
		c5.5,4.84,8.26,11.14,8.26,18.92c0,1.17-0.06,2.35-0.19,3.52c-0.12,1.17-0.31,2.27-0.56,3.3h-43.7c0.83,3.43,2.87,5.85,6.15,7.28
		C281.35,70.12,286.92,70.98,294.78,71.26z M286.46,40.62c-3.81,0-6.97,0.85-9.5,2.54c-2.53,1.69-4.2,4.12-5.03,7.3h27.31
		c-0.33-3.04-1.63-5.43-3.91-7.19C293.06,41.5,290.1,40.62,286.46,40.62z"/>
	<path fill="#3F9AFF" d="M395.59,30.11l-27.81,63.64c-2.57,5.9-5.36,9.9-8.38,11.99c-3.02,2.09-7.88,3.28-14.59,3.58L327.81,110
		l-0.37-13.9l11.3-0.55c4.05-0.07,6.85-0.48,8.38-1.21c1.53-0.73,2.83-2.24,3.91-4.51l1.61-3.7l-24.95-56.02h19.74l14.77,36.64
		l14.4-36.64H395.59z"/>
	<path fill="#3F9AFF" d="M525.21,10h16.76l3.72,74.01h-16.51l-1.74-52.09l-12.29,33.45h-2.48l-12.29-32.88l-1.74,51.53h-16.26
		L486.1,10h17.26l10.93,29.83L525.21,10z"/>
	<path fill="#3F9AFF" d="M599.7,71.26l9.68,0.32l-0.62,12.43l-15.02-0.22c-11.84-0.14-20.55-2.4-26.13-6.77
		c-5.59-4.37-8.38-11.14-8.38-20.31c0-8.15,2.98-14.9,8.94-20.26c5.96-5.36,13.66-8.04,23.09-8.04c9.02,0,16.28,2.42,21.79,7.26
		c5.5,4.84,8.26,11.14,8.26,18.92c0,1.17-0.06,2.35-0.19,3.52c-0.12,1.17-0.31,2.27-0.56,3.3h-43.7c0.83,3.43,2.87,5.85,6.15,7.28
		C586.27,70.12,591.83,70.98,599.7,71.26z M591.38,40.62c-3.81,0-6.97,0.85-9.5,2.54c-2.53,1.69-4.2,4.12-5.03,7.3h27.31
		c-0.33-3.04-1.63-5.43-3.91-7.19C597.98,41.5,595.02,40.62,591.38,40.62z"/>
	<path fill="#3F9AFF" d="M633.47,30.11h12.29l1.49,10.85h2.61c2.56-4.07,4.88-6.89,6.95-8.47c2.07-1.58,4.72-2.37,7.95-2.37
		c3.06,0,5.3,0.87,6.7,2.6c1.41,1.73,2.11,4.48,2.11,8.25h3.1c2.73-4.29,4.97-7.17,6.7-8.64c1.74-1.47,4.1-2.2,7.08-2.2
		c3.39,0,5.84,0.93,7.33,2.8c1.49,1.87,2.24,4.97,2.24,9.3v41.8h-15.27V52.09c0-1.49-0.35-2.58-1.06-3.29
		c-0.7-0.71-1.8-1.06-3.29-1.06c-0.99,0-2.01,0.21-3.04,0.62c-1.04,0.41-2.17,1.07-3.41,1.98v33.67h-14.15V51.87
		c0-1.41-0.35-2.45-1.06-3.12c-0.7-0.67-1.76-1-3.17-1c-1.08,0-2.15,0.23-3.23,0.68c-1.08,0.45-2.28,1.17-3.6,2.15v33.45h-15.27
		V30.11z"/>
	<path fill="#3F9AFF" d="M775,57.01c0,8.36-3.04,15.24-9.12,20.62c-6.08,5.39-13.89,8.08-23.4,8.08c-9.44,0-17.13-2.66-23.09-7.97
		c-5.96-5.31-8.94-12.18-8.94-20.62c0-8.36,3.06-15.23,9.19-20.62c6.12-5.38,13.9-8.08,23.34-8.08s17.13,2.66,23.09,7.97
		C772.02,41.69,775,48.57,775,57.01z M729.06,57.01c0,4.97,1.16,8.74,3.48,11.3c2.32,2.56,5.71,3.84,10.18,3.84
		c4.47,0,7.86-1.28,10.18-3.84c2.32-2.56,3.48-6.29,3.48-11.19c0-4.9-1.16-8.64-3.48-11.24c-2.32-2.6-5.71-3.9-10.18-3.9
		c-4.47,0-7.86,1.28-10.18,3.84C730.22,48.38,729.06,52.11,729.06,57.01z"/>
</g>
</svg>
